<svg width="45" height="45" viewBox="0 0 45 45" fill="none" xmlns="http://www.w3.org/2000/svg">
<rect width="45" height="45" rx="15" fill="#3456FF" fill-opacity="0.75"/>
<path d="M14.4286 23.7143L23.8571 23.7151C24.7604 23.7151 25.5012 24.4141 25.5667 25.3014L25.5714 25.4294V27.5714C25.5706 31.1714 21.8969 32.2857 19.1429 32.2857C16.4439 32.2857 12.8609 31.2156 12.7187 27.7844L12.7143 27.5714V25.4286C12.7143 24.5253 13.4141 23.7845 14.3007 23.719L14.4286 23.7143ZM25.76 23.7151L31.5714 23.7143C32.4747 23.7143 33.2155 24.414 33.281 25.3007L33.2857 25.4286V27.1428C33.2849 30.3648 30.3457 31.4286 28.1429 31.4286C27.236 31.4286 26.2066 31.2443 25.3066 30.8071C25.9514 30.0408 26.3699 29.0652 26.4229 27.8382L26.4286 27.5714V25.4294C26.4286 24.8279 26.2153 24.2802 25.8681 23.8429L25.76 23.7151L31.5714 23.7143L25.76 23.7151ZM19.1429 12.5714C21.746 12.5714 23.8571 14.6826 23.8571 17.2857C23.8571 19.8888 21.746 22 19.1429 22C16.5397 22 14.4286 19.8888 14.4286 17.2857C14.4286 14.6826 16.5397 12.5714 19.1429 12.5714ZM28.5714 14.2857C30.7014 14.2857 32.4286 16.0128 32.4286 18.1428C32.4286 20.2728 30.7014 22 28.5714 22C26.4414 22 24.7143 20.2728 24.7143 18.1428C24.7143 16.0128 26.4414 14.2857 28.5714 14.2857Z" fill="white"/>
</svg>
