<svg width="24" height="24" viewBox="0 0 24 24" fill="none" xmlns="http://www.w3.org/2000/svg">
<path d="M12 16.5C13.3018 16.5 14.3571 17.5553 14.3571 18.8571C14.3571 20.1589 13.3018 21.2143 12 21.2143C10.6982 21.2143 9.64285 20.1589 9.64285 18.8571C9.64285 17.5553 10.6982 16.5 12 16.5Z" fill="#070928" fill-opacity="0.75"/>
<path d="M12 9.64286C13.3018 9.64286 14.3571 10.6982 14.3571 12C14.3571 13.3018 13.3018 14.3571 12 14.3571C10.6982 14.3571 9.64285 13.3018 9.64285 12C9.64285 10.6982 10.6982 9.64286 12 9.64286Z" fill="#070928" fill-opacity="0.75"/>
<path d="M14.3571 5.14286C14.3571 3.84103 13.3018 2.78571 12 2.78571C10.6982 2.78571 9.64285 3.84103 9.64285 5.14286C9.64285 6.44469 10.6982 7.5 12 7.5C13.3018 7.5 14.3571 6.44469 14.3571 5.14286Z" fill="#070928" fill-opacity="0.75"/>
</svg>
