<svg width="18" height="18" viewBox="0 0 18 18" fill="none" xmlns="http://www.w3.org/2000/svg">
<path d="M11.25 4.5C11.25 5.74262 10.2426 6.75 9 6.75C7.75738 6.75 6.75 5.74262 6.75 4.5C6.75 3.25736 7.75738 2.25 9 2.25C10.2426 2.25 11.25 3.25736 11.25 4.5ZM3.9375 6.75C4.86948 6.75 5.625 5.99451 5.625 5.0625C5.625 4.13052 4.86948 3.375 3.9375 3.375C3.00552 3.375 2.25 4.13052 2.25 5.0625C2.25 5.99451 3.00552 6.75 3.9375 6.75ZM14.0625 6.75C14.9945 6.75 15.75 5.99451 15.75 5.0625C15.75 4.13052 14.9945 3.375 14.0625 3.375C13.1305 3.375 12.375 4.13052 12.375 5.0625C12.375 5.99451 13.1305 6.75 14.0625 6.75ZM5.75004 8.45145C5.93145 8.10861 6.29184 7.875 6.70674 7.875H11.2933C11.7082 7.875 12.0686 8.10861 12.25 8.45145C12.2563 8.46343 12.2624 8.47552 12.2683 8.48773C12.3367 8.62965 12.375 8.78873 12.375 8.95674V12.375C12.375 12.6534 12.3413 12.9239 12.2777 13.1828C11.9157 14.6566 10.5856 15.75 9 15.75C7.41442 15.75 6.08428 14.6567 5.72226 13.1828C5.71854 13.1676 5.71494 13.1524 5.7114 13.1372C5.65487 12.8923 5.625 12.6371 5.625 12.375V8.95674C5.625 8.77421 5.67022 8.60226 5.75004 8.45145ZM4.78125 8.95674C4.78125 8.7768 4.80592 8.60271 4.85207 8.4375H2.25C1.93934 8.4375 1.6875 8.68933 1.6875 9V11.8125C1.6875 13.0551 2.69486 14.0625 3.9375 14.0625C4.33085 14.0625 4.70063 13.9616 5.02234 13.7842C4.86622 13.3435 4.78125 12.8692 4.78125 12.375V8.95674ZM13.2188 12.375C13.2188 12.8692 13.1338 13.3435 12.9777 13.7842C13.2994 13.9616 13.6691 14.0625 14.0625 14.0625C15.3051 14.0625 16.3125 13.0551 16.3125 11.8125V9C16.3125 8.68933 16.0607 8.4375 15.75 8.4375H13.1479C13.1941 8.60271 13.2188 8.7768 13.2188 8.95674V12.375Z" fill="#070928" fill-opacity="0.75"/>
</svg>
