<svg width="45" height="45" viewBox="0 0 45 45" fill="none" xmlns="http://www.w3.org/2000/svg">
<rect width="45" height="45" rx="15" fill="#3456FF"/>
<path d="M20.5492 12.5332C21.3872 11.8262 22.6128 11.8262 23.4508 12.5332L30.2008 18.2277C30.7076 18.6552 31 19.2845 31 19.9475V29.7504C31 30.7169 30.2165 31.5004 29.25 31.5004H26.25C25.2835 31.5004 24.5 30.7169 24.5 29.7504V24.7504C24.5 24.3362 24.1642 24.0004 23.75 24.0004H20.25C19.8358 24.0004 19.5 24.3362 19.5 24.7504V29.7504C19.5 30.7169 18.7165 31.5004 17.75 31.5004H14.75C13.7835 31.5004 13 30.7169 13 29.7504V19.9475C13 19.2845 13.2924 18.6552 13.7992 18.2277L20.5492 12.5332Z" fill="#F8F8FA"/>
</svg>
