<svg width="48" height="45" viewBox="0 0 48 45" fill="none" xmlns="http://www.w3.org/2000/svg">
<g clip-path="url(#clip0_1_456)">
<path d="M43.7737 0H3.4889C2.56358 0 1.67617 0.349983 1.02187 0.972955C0.36758 1.59593 0 2.44086 0 3.32188V41.6781C0 42.5591 0.36758 43.4041 1.02187 44.0271C1.67617 44.65 2.56358 45 3.4889 45H43.7737C44.699 45 45.5864 44.65 46.2407 44.0271C46.895 43.4041 47.2626 42.5591 47.2626 41.6781V3.32188C47.2626 2.44086 46.895 1.59593 46.2407 0.972955C45.5864 0.349983 44.699 0 43.7737 0ZM14.0869 38.3344H6.98108V16.8438H14.0869V38.3344ZM10.5291 13.8656C9.72302 13.8613 8.9364 13.6297 8.26846 13.2002C7.60052 12.7706 7.08119 12.1622 6.77603 11.4519C6.47087 10.7416 6.39354 9.96111 6.5538 9.20898C6.71407 8.45685 7.10475 7.76677 7.67653 7.22584C8.24832 6.68491 8.97558 6.31738 9.76655 6.16961C10.5575 6.02185 11.3767 6.10049 12.1208 6.3956C12.8649 6.69071 13.5004 7.18906 13.9473 7.82777C14.3942 8.46648 14.6323 9.21692 14.6317 9.98438C14.6393 10.4982 14.5382 11.0082 14.3344 11.484C14.1305 11.9598 13.8282 12.3917 13.4454 12.7539C13.0625 13.1161 12.607 13.4012 12.106 13.5922C11.6049 13.7832 11.0686 13.8762 10.5291 13.8656ZM40.2782 38.3531H33.1757V26.6125C33.1757 23.15 31.6298 22.0813 29.6343 22.0813C27.5272 22.0813 25.4594 23.5938 25.4594 26.7V38.3531H18.3536V16.8594H25.187V19.8375H25.2789C25.9649 18.5156 28.3674 16.2563 32.0335 16.2563C35.9983 16.2563 40.2815 18.4969 40.2815 25.0594L40.2782 38.3531Z" fill="#0A66C2"/>
</g>
<defs>
<clipPath id="clip0_1_456">
<rect width="47.2626" height="45" fill="white"/>
</clipPath>
</defs>
</svg>
