<svg width="45" height="45" viewBox="0 0 45 45" fill="none" xmlns="http://www.w3.org/2000/svg">
<rect width="45" height="45" rx="15" fill="#3456FF" fill-opacity="0.75"/>
<path d="M13 22C13 16.4772 17.4772 12 23 12C28.5229 12 33 16.4772 33 22C33 27.5228 28.5229 32 23 32C21.2547 32 19.6114 31.552 18.1815 30.7644L14.2912 31.9484C13.9379 32.056 13.5541 31.96 13.2929 31.6988C13.0318 31.4378 12.9358 31.0538 13.0434 30.7006L14.2287 26.8059C13.4454 25.379 13 23.7402 13 22ZM19 21C19 21.5523 19.4477 22 20 22H26C26.5523 22 27 21.5523 27 21C27 20.4477 26.5523 20 26 20H20C19.4477 20 19 20.4477 19 21ZM20 24C19.4477 24 19 24.4477 19 25C19 25.5523 19.4477 26 20 26H24C24.5523 26 25 25.5523 25 25C25 24.4477 24.5523 24 24 24H20Z" fill="white"/>
</svg>
