<svg width="45" height="45" viewBox="0 0 45 45" fill="none" xmlns="http://www.w3.org/2000/svg">
<rect width="45" height="45" rx="15" fill="#3456FF" fill-opacity="0.75"/>
<path d="M29 18C29 16.4087 28.3679 14.8826 27.2426 13.7574C26.1174 12.6321 24.5913 12 23 12C21.4087 12 19.8826 12.6321 18.7574 13.7574C17.6321 14.8826 17 16.4087 17 18C17 25 14 27 14 27H32C32 27 29 25 29 18Z" fill="white" stroke="white" stroke-width="2" stroke-linecap="round" stroke-linejoin="round"/>
<path d="M24.73 31C24.5542 31.3031 24.3018 31.5547 23.9982 31.7295C23.6946 31.9044 23.3504 31.9965 23 31.9965C22.6496 31.9965 22.3054 31.9044 22.0018 31.7295C21.6981 31.5547 21.4458 31.3031 21.27 31" stroke="white" stroke-width="2" stroke-linecap="round" stroke-linejoin="round"/>
</svg>
