<svg width="24" height="24" viewBox="0 0 24 24" fill="none" xmlns="http://www.w3.org/2000/svg">
<path d="M2.58543 1.57918C2.32923 1.45108 2.02242 1.4801 1.79478 1.65397C1.56714 1.82785 1.45841 2.1162 1.51459 2.39709L3.6189 9.67165C3.69906 9.94873 3.931 10.1553 4.21548 10.2029L12.75 11.6323C13.152 11.7127 13.152 12.2873 12.75 12.3677L4.21548 13.797C3.931 13.8447 3.69906 14.0512 3.6189 14.3283L1.51459 21.6028C1.45841 21.8838 1.56714 22.1721 1.79478 22.3461C2.02242 22.5199 2.32923 22.5489 2.58543 22.4208L22.0854 12.6708C22.3395 12.5438 22.5 12.2841 22.5 12C22.5 11.7159 22.3395 11.4562 22.0854 11.3292L2.58543 1.57918Z" fill="#070928" fill-opacity="0.75"/>
</svg>
