<svg width="19" height="22" viewBox="0 0 19 22" fill="none" xmlns="http://www.w3.org/2000/svg">
<path d="M13.0566 8.0041C13.5174 6.57708 13.75 5.32791 13.75 4.25083C13.75 1.85216 12.811 0.00342178 11.25 0.00342178C10.4033 0.00342178 10.1412 0.507662 9.8133 1.75024C9.8304 1.68531 9.6504 2.3842 9.5977 2.57145C9.4968 2.93019 9.321 3.54094 9.0707 4.40246C9.064 4.42554 9.0542 4.44729 9.0413 4.46737L6.17457 8.95303C5.49652 10.014 4.49605 10.8295 3.32017 11.2797L2.06293 11.761C1.26956 12.0648 0.808941 12.8945 0.970661 13.7285L1.65682 17.2672C1.82396 18.1291 2.47726 18.8151 3.33006 19.0242L11.5796 21.0461C14.1108 21.6665 16.6692 20.1316 17.3131 17.6062L18.8869 11.4335C19.2622 9.9618 18.3733 8.4646 16.9016 8.08935C16.6796 8.03274 16.4513 8.0041 16.2222 8.0041H13.0566Z" fill="#070928" fill-opacity="0.75"/>
</svg>
