<svg width="22" height="22" viewBox="0 0 22 22" fill="none" xmlns="http://www.w3.org/2000/svg">
<path d="M1.58543 0.579185C1.32923 0.45108 1.02242 0.480101 0.794776 0.653975C0.567136 0.827855 0.458409 1.1162 0.514591 1.39709L2.6189 8.67165C2.69906 8.94873 2.931 9.1553 3.21548 9.20294L11.75 10.6323C12.152 10.7127 12.152 11.2873 11.75 11.3677L3.21548 12.797C2.931 12.8447 2.69906 13.0512 2.6189 13.3283L0.514591 20.6028C0.458409 20.8838 0.567136 21.1721 0.794776 21.3461C1.02242 21.5199 1.32923 21.5489 1.58543 21.4208L21.0854 11.6708C21.3395 11.5438 21.5 11.2841 21.5 11C21.5 10.7159 21.3395 10.4562 21.0854 10.3292L1.58543 0.579185Z" fill="#070928" fill-opacity="0.75"/>
</svg>
