<svg width="21" height="22" viewBox="0 0 21 22" fill="none" xmlns="http://www.w3.org/2000/svg">
<path d="M15.2857 11C18.126 11 20.4286 8.69746 20.4286 5.85714C20.4286 3.01682 18.126 0.714287 15.2857 0.714287C12.4454 0.714287 10.1429 3.01682 10.1429 5.85714C10.1429 6.68643 10.3391 7.46987 10.6877 8.16354L7.80902 10.1883C7.12145 9.12912 5.92825 8.42857 4.57142 8.42857C2.44118 8.42857 0.714279 10.1555 0.714279 12.2857C0.714279 14.416 2.44118 16.1429 4.57142 16.1429C5.77243 16.1429 6.84524 15.5939 7.55265 14.7333L12.0112 17.3341C11.9113 17.6331 11.8571 17.9531 11.8571 18.2857C11.8571 19.9426 13.2003 21.2857 14.8571 21.2857C16.514 21.2857 17.8571 19.9426 17.8571 18.2857C17.8571 16.6289 16.514 15.2857 14.8571 15.2857C13.9955 15.2857 13.2186 15.649 12.6714 16.2308L8.19234 13.618C8.34517 13.2028 8.42857 12.754 8.42857 12.2857C8.42857 11.9798 8.39291 11.6822 8.32562 11.3969L11.4044 9.23137C12.3473 10.315 13.7365 11 15.2857 11Z" fill="#070928" fill-opacity="0.75"/>
</svg>
