<svg width="32" height="32" viewBox="0 0 32 32" fill="none" xmlns="http://www.w3.org/2000/svg">
<rect width="32" height="32" rx="15" fill="#3456FF" fill-opacity="0.75"/>
<g clip-path="url(#clip0_0_1)">
<path d="M23.3333 10.5H19.6667V8.66668C19.6667 7.64918 18.8508 6.83334 17.8333 6.83334H14.1667C13.1492 6.83334 12.3333 7.64918 12.3333 8.66668V10.5H8.66667C7.64917 10.5 6.8425 11.3158 6.8425 12.3333L6.83333 22.4167C6.83333 23.4342 7.64917 24.25 8.66667 24.25H23.3333C24.3508 24.25 25.1667 23.4342 25.1667 22.4167V12.3333C25.1667 11.3158 24.3508 10.5 23.3333 10.5ZM17.8333 10.5H14.1667V8.66668H17.8333V10.5Z" fill="white"/>
</g>
<defs>
<clipPath id="clip0_0_1">
<rect width="22" height="22" fill="white" transform="translate(5 5)"/>
</clipPath>
</defs>
</svg>
